<mxfile host="app.diagrams.net" modified="2024-02-21T19:48:37.183Z" agent="Mozilla/5.0 (Windows NT 10.0; Win64; x64) AppleWebKit/537.36 (KHTML, like Gecko) Chrome/121.0.0.0 Safari/537.36" version="23.1.5" etag="e55PpjEqteCoIf754-Dx" type="github">
  <diagram name="Page-1" id="Maj2x0Lgyf8W4NHwD9Hu">
    <mxGraphModel>
      <root>
        <mxCell id="0" />
        <mxCell id="1" parent="0" />
      </root>
    </mxGraphModel>
  </diagram>
</mxfile>
